<?xml version="1.0" encoding="utf-8"?>
<svg width="54px" height="54px" viewBox="0 0 54 54" version="1.1" xmlns="http://www.w3.org/2000/svg">
  <title>logo-mobile</title>
  <g id="Page-1" stroke="none" stroke-width="1" fill="none" fill-rule="evenodd">
    <g id="logo-mobile">
      <rect id="Rectangle-6" stroke="#E5261F" stroke-width="4" fill-rule="nonzero" x="2" y="2" width="50" height="50"/>
      <path id="." fill="#E5261F" d="M 38.136 41.893 C 37.66 41.375 37.422 40.738 37.422 39.982 C 37.422 39.226 37.667 38.582 38.157 38.05 C 38.647 37.518 39.228 37.252 39.9 37.252 C 40.6 37.252 41.181 37.518 41.643 38.05 C 42.105 38.582 42.336 39.226 42.336 39.982 C 42.336 40.738 42.091 41.375 41.601 41.893 C 41.111 42.411 40.53 42.67 39.858 42.67 C 39.186 42.67 38.612 42.411 38.136 41.893 Z"/>
      <path d="M 36.00699978637695 19.760498504638672 Q 37.424499786376956 19.760498504638672 38.36949978637695 19.665998504638672 L 38.36949978637695 20.29599850463867 Q 36.60549978637695 20.705498504638673 35.880999786376954 23.036498504638672 L 29.927499786376952 42.12549850463867 L 29.675499786376953 42.12549850463867 L 29.423499786376954 42.12549850463867 L 23.942499786376953 25.90299850463867 L 18.93399978637695 42.12549850463867 L 18.681999786376956 42.12549850463867 L 18.429999786376953 42.12549850463867 L 11.751999786376953 22.311998504638673 Q 11.090499786376952 20.35899850463867 9.578499786376954 20.29599850463867 L 9.578499786376954 19.665998504638672 Q 10.869999786376953 19.760498504638672 12.948999786376953 19.760498504638672 Q 15.216999786376952 19.760498504638672 16.350999786376953 19.665998504638672 L 16.350999786376953 20.29599850463867 Q 15.500499786376952 20.35899850463867 15.153999786376954 20.610998504638673 Q 14.807499786376953 20.86299850463867 14.807499786376953 21.39849850463867 Q 14.807499786376953 21.90249850463867 15.153999786376954 22.941998504638672 L 19.752999786376954 36.99099850463867 L 23.595999786376954 24.80049850463867 L 22.745499786376953 22.311998504638673 Q 22.11549978637695 20.35899850463867 20.886999786376954 20.29599850463867 L 20.886999786376954 19.665998504638672 Q 22.020999786376954 19.760498504638672 23.942499786376953 19.760498504638672 Q 26.651499786376952 19.760498504638672 27.974499786376953 19.665998504638672 L 27.974499786376953 20.29599850463867 Q 26.777499786376953 20.35899850463867 26.304999786376953 20.56374850463867 Q 25.832499786376953 20.76849850463867 25.832499786376953 21.42999850463867 Q 25.832499786376953 21.996998504638672 26.147499786376954 22.941998504638672 L 30.683499786376952 36.959498504638674 L 34.55799978637695 24.76899850463867 Q 35.06199978637696 23.225498504638672 35.06199978637696 22.217498504638673 Q 35.06199978637696 21.177998504638673 34.43199978637695 20.75274850463867 Q 33.80199978637695 20.327498504638672 32.38449978637695 20.29599850463867 L 32.38449978637695 19.665998504638672 Q 34.17999978637695 19.760498504638672 36.00699978637695 19.760498504638672 Z" transform="matrix(1, 0, 0, 1, 0, 0)" style="fill: rgb(229, 38, 31); white-space: pre;"/>
    </g>
  </g>
</svg>